<?xml version="1.0" encoding="iso-8859-1"?>
<!-- Generator: Adobe Illustrator 19.0.0, SVG Export Plug-In . SVG Version: 6.00 Build 0)  -->
<svg version="1.1" id="Layer_1" xmlns="http://www.w3.org/2000/svg" xmlns:xlink="http://www.w3.org/1999/xlink" x="0px" y="0px"
	 viewBox="0 0 357.334 357.334" style="enable-background:new 0 0 357.334 357.334;" xml:space="preserve">
<path style="fill:#00945E;" d="M118.12,206.823H84.013v0.023c-0.306-0.005-0.608-0.023-0.915-0.023
	c-27.644,0-50.054,22.41-50.054,50.053c0,7.503,1.67,14.609,4.631,20.996H23.182c-2.198-3.924-6.455-6.512-11.259-6.333
	c-6.833,0.255-12.165,6.001-11.914,12.835c0.259,6.832,6.002,12.164,12.836,11.91c0.348-0.013,0.689-0.049,1.028-0.09h38.274
	c0.036,0.029,0.071,0.061,0.108,0.09h61.683c0.037-0.029,0.072-0.061,0.109-0.09h2.545c9.144,0,16.558-7.413,16.558-16.558v-57.78
	C133.15,213.553,126.422,206.823,118.12,206.823z"/>
<path style="fill:#00945E;" d="M345.412,271.539c-4.804-0.179-9.059,2.409-11.258,6.333H319.66
	c2.961-6.386,4.631-13.492,4.631-20.996c0-27.643-22.41-50.053-50.054-50.053c-0.307,0-0.609,0.018-0.915,0.023v-0.023h-34.106
	c-8.302,0-15.031,6.73-15.031,15.031v57.78c0,9.145,7.415,16.558,16.558,16.558h2.545c0.037,0.029,0.072,0.061,0.109,0.09h61.683
	c0.037-0.029,0.071-0.061,0.108-0.09h38.274c0.34,0.041,0.681,0.077,1.028,0.09c6.834,0.255,12.577-5.078,12.836-11.91
	C357.577,277.54,352.245,271.793,345.412,271.539z"/>
<path style="fill:#05CE7C;" d="M57.262,174.886c0,67.05,54.355,121.405,121.405,121.405s121.405-54.355,121.405-121.405H57.262z"/>
<g>
	<path style="fill:#00945E;" d="M82.236,325.983c-2.913-8.536-10.012-15.133-18.847-17.347h39.817L82.236,325.983z"/>
	<path style="fill:#28B07F;" d="M120.492,215.229c-10.858,0-19.66,8.803-19.66,19.66v59.086H78.747
		c-2.198-3.924-6.455-6.512-11.259-6.333c-6.833,0.255-12.165,6.001-11.914,12.835c0.259,6.832,6.002,12.165,12.836,11.91
		c0.348-0.013,0.688-0.049,1.028-0.09h25.929l-2.48,1.636c-1.042-0.24-2.128-0.362-3.248-0.321
		c-6.832,0.255-12.164,6.001-11.914,12.835c0.259,6.832,6.002,12.164,12.836,11.91c5.935-0.221,10.728-4.585,11.725-10.201
		l24.512-16.174c7.61-1.493,13.355-8.194,13.355-16.242v-60.851C140.15,224.032,131.349,215.229,120.492,215.229z"/>
</g>
<g>
	<path style="fill:#00945E;" d="M275.099,325.983c2.913-8.536,10.012-15.133,18.847-17.347h-39.817L275.099,325.983z"/>
	<path style="fill:#28B07F;" d="M236.844,215.229c10.858,0,19.66,8.803,19.66,19.66v59.086h22.085
		c2.198-3.924,6.455-6.512,11.259-6.333c6.833,0.255,12.165,6.001,11.914,12.835c-0.259,6.832-6.002,12.165-12.836,11.91
		c-0.348-0.013-0.688-0.049-1.028-0.09h-25.929l2.48,1.636c1.042-0.24,2.128-0.362,3.248-0.321
		c6.832,0.255,12.164,6.001,11.914,12.835c-0.259,6.832-6.002,12.164-12.836,11.91c-5.935-0.221-10.728-4.585-11.725-10.201
		l-24.512-16.174c-7.61-1.493-13.355-8.194-13.355-16.242v-60.851C217.184,224.032,225.986,215.229,236.844,215.229z"/>
</g>
<g>
	<path style="fill:#05CE7C;" d="M244.195,53.061c41.476,0,75.099,33.622,75.099,75.098s-33.623,75.098-75.099,75.098H113.14
		c-41.477,0-75.099-33.622-75.099-75.098s33.622-75.098,75.099-75.098C113.14,53.061,244.195,53.061,244.195,53.061z"/>
	<path style="fill:#05CE7C;" d="M113.14,53.061c-41.476,0-75.099,33.622-75.099,75.098s33.623,75.098,75.099,75.098h131.055
		c41.477,0,75.099-33.622,75.099-75.098s-33.622-75.098-75.099-75.098C244.195,53.061,113.14,53.061,113.14,53.061z"/>
	<g>
		<path style="fill:#00B070;" d="M150.527,53.061c0,5.069,4.109,9.179,9.179,9.179c5.069,0,9.179-4.11,9.179-9.179H150.527z"/>
		<path style="fill:#00B070;" d="M177.064,53.061c0,6.817,5.527,12.345,12.345,12.345c6.818,0,12.346-5.528,12.346-12.345
			C201.755,53.061,177.064,53.061,177.064,53.061z"/>
		<circle style="fill:#00B070;" cx="177.064" cy="71.614" r="5.272"/>
	</g>
	<g>
		<circle style="fill:#05CE7C;" cx="118.68" cy="53.061" r="34.093"/>
		<circle style="fill:#FFFFFF;" cx="118.679" cy="53.061" r="22.947"/>
		<path style="fill:#333E48;" d="M129.17,57.65h-20.981c-2.534,0-4.589-2.055-4.589-4.589c0-2.535,2.055-4.59,4.589-4.59h20.981
			c2.534,0,4.59,2.055,4.59,4.59S131.704,57.65,129.17,57.65z"/>
	</g>
	<g>
		<circle style="fill:#05CE7C;" cx="238.656" cy="53.061" r="34.093"/>
		<circle style="fill:#FFFFFF;" cx="238.656" cy="53.061" r="22.947"/>
		<path style="fill:#333E48;" d="M249.146,57.65h-20.98c-2.534,0-4.59-2.055-4.59-4.589c0-2.535,2.056-4.59,4.59-4.59h20.98
			c2.534,0,4.59,2.055,4.59,4.59S251.68,57.65,249.146,57.65z"/>
	</g>
	<path style="fill:#00945E;" d="M315.61,128.159c4.661,0,8.439,3.779,8.439,8.44c0,0.257-0.011,0.512-0.033,0.763l0.001-0.032
		c-4.563,39.999-38.621,71.172-79.822,71.172H113.14c-41.201,0-75.259-31.173-79.822-71.172l0.001,0.032
		c-0.023-0.251-0.033-0.506-0.033-0.763c0-4.661,3.778-8.44,8.439-8.44H315.61z"/>
</g>
<g>
</g>
<g>
</g>
<g>
</g>
<g>
</g>
<g>
</g>
<g>
</g>
<g>
</g>
<g>
</g>
<g>
</g>
<g>
</g>
<g>
</g>
<g>
</g>
<g>
</g>
<g>
</g>
<g>
</g>
</svg>
