<?xml version="1.0" encoding="iso-8859-1"?>
<!-- Generator: Adobe Illustrator 19.0.0, SVG Export Plug-In . SVG Version: 6.00 Build 0)  -->
<svg version="1.1" id="Layer_1" xmlns="http://www.w3.org/2000/svg" xmlns:xlink="http://www.w3.org/1999/xlink" x="0px" y="0px"
	 viewBox="0 0 460 460" style="enable-background:new 0 0 460 460;" xml:space="preserve">
<g id="XMLID_2704_">
	<path id="XMLID_1320_" style="fill:#7F5639;" d="M160,280l-18.905,151.24c-0.626,5.004-4.88,8.76-9.923,8.76H130v20h-30
		l4.472-8.944c3.032-6.064,8.898-10.129,15.528-10.916l0,0V440l-10-160H160z"/>
	<path id="XMLID_1555_" style="fill:#443126;" d="M104.472,451.056C107.86,444.28,114.785,440,122.361,440H130v20h-30
		L104.472,451.056z"/>
	<path id="XMLID_1676_" style="fill:#7F5639;" d="M420,280l-18.905,151.24c-0.626,5.004-4.88,8.76-9.923,8.76H390v20h-30
		l4.472-8.944c3.041-6.083,8.936-10.143,15.59-10.912V440H380l-10-160H420z"/>
	<path id="XMLID_1589_" style="fill:#443126;" d="M364.472,451.056C367.86,444.28,374.785,440,382.361,440H390v20h-30
		L364.472,451.056z"/>
	<path id="XMLID_1766_" style="fill:#443126;" d="M460,390L460,390c-33.137,0-60-26.863-60-60V210l0,0c33.137,0,60,26.863,60,60V390
		z"/>
	<path id="XMLID_1556_" style="fill:#563D2D;" d="M460,381.953c-17.929-10.376-30-29.748-30-51.953V218.047
		c17.929,10.376,30,29.748,30,51.953V381.953z"/>
	<path id="XMLID_1588_" style="fill:#AA734D;" d="M417.623,245.512c-0.684,31.952-7.623,53.219-7.623,53.219
		c-10.036,18.099-26.885,31.89-47.082,37.924l-11.823,94.585c-0.626,5.004-4.88,8.76-9.923,8.76H340v20h-30l4.472-8.944
		c3.026-6.051,8.875-10.102,15.486-10.901v-0.822l-9.164-146.63l-122.847,3.723L181.095,431.24c-0.626,5.004-4.88,8.76-9.923,8.76
		H170v20h-30l4.472-8.944c3.032-6.064,8.899-10.118,15.528-10.906V440l-17.769-142.151c-33.387-1.987-59.192-31.284-56.099-65.305
		c2.571-28.286,2.195-56.762-1.124-84.97l-3.381-28.742c-0.592-5.036-4.861-8.832-9.932-8.832H14.142
		C6.308,110-0.038,103.63,0,95.788c0.019-3.848,1.713-7.5,4.434-10.222l53.85-53.85C65.786,24.214,75.96,20,86.569,20H90V10h10V0
		c5.587,0,10.117,4.529,10.117,10.117V20c6.229,0,12.103,2.903,15.887,7.851l101.794,133.115
		c11.73,15.339,30.124,24.095,49.425,23.527l78.729-2.316c33.711-0.991,60.641,25.69,61.729,57.822V240
		C417.742,241.823,417.731,243.66,417.623,245.512z"/>
	<path id="XMLID_1697_" style="fill:#7F5639;" d="M100,30H89.883V0C95.471,0,100,4.529,100,10.117V30z"/>
	<path id="XMLID_1838_" style="fill:#443126;" d="M310,460h30v-20h-7.639c-7.575,0-14.501,4.28-17.889,11.056L310,460z"/>
	<path id="XMLID_1868_" style="fill:#443126;" d="M140,460h30v-20h-7.639c-7.575,0-14.501,4.28-17.889,11.056L140,460z"/>
	<path id="XMLID_1677_" style="fill:#C48866;" d="M350,210L350,210c-11.046,0-20,8.954-20,20v10c0,16.569,13.431,30,30,30h10
		c11.046,0,20-8.954,20-20l0,0C390,227.909,372.091,210,350,210z"/>
	<path id="XMLID_2235_" style="fill:#936444;" d="M320.415,292.715l-120.726,3.658c-1.54,0.047-2.275-1.901-1.068-2.858
		C205.552,288.021,210,279.532,210,270v-0.105c-0.009-5.442,4.436-9.895,9.878-9.895h80.471c5.337,0,9.661,4.332,9.652,9.669
		L310,270C310,279.081,314.041,287.213,320.415,292.715z"/>
	<path id="XMLID_2008_" style="fill:#936444;" d="M114.58,142.965c-3.143-13.692-15.473-23.119-29.52-22.966
		C84.967,120,84.875,120,84.782,120c-1.106,0-2.193-0.08-3.261-0.219l3.27,27.792c3.319,28.208,3.695,56.684,1.124,84.97l0,0
		c-1.013,11.139,1.079,21.769,5.518,31.102c2.228,4.684,9.002,4.333,10.745-0.552c4.004-11.22,10.439-21.284,18.675-29.554
		c7.265-7.295,10.456-17.702,8.152-27.737L114.58,142.965z"/>
	<path id="XMLID_1329_" style="fill:#C48866;" d="M94.562,54.821c1.725,7.514-3.711,14.695-11.4,15.245
		c-0.112,0.008-0.225,0.017-0.337,0.026c-12.211,1.033-22.002,11.056-22.774,23.286c-0.073,1.152-0.067,2.288,0.011,3.404
		C60.567,103.948,54.792,110,47.608,110H14.142C6.308,110-0.038,103.63,0,95.787c0.019-3.848,1.713-7.5,4.434-10.221l53.85-53.85
		C65.786,24.214,75.96,20,86.568,20L94.562,54.821z"/>
	<path id="XMLID_1585_" style="fill:#443126;" d="M20,80.62C20,91.323,11.323,100,0.62,100l0,0c-0.575-1.878-0.775-3.92-0.493-6.044
		c0.42-3.172,1.996-6.079,4.258-8.341L20,70l0,0V80.62z"/>
	<path id="XMLID_1464_" style="fill:#443126;" d="M75,50c-2.761,0-5,2.239-5,5s2.239,5,5,5s5-2.239,5-5S77.761,50,75,50z"/>
	<path id="XMLID_1783_" style="fill:#563D2D;" d="M265.552,183.662l-28.257,0.831c-19.301,0.568-37.696-8.188-49.425-23.527
		l-18.467-24.149c-3.044-3.98-9.402-1.828-9.402,3.183l0,0c-11.046,0-20-8.954-20-20l0,0c0-14.031-4.618-27.671-13.141-38.816
		l-25.49-33.333C97.586,42.903,91.712,40,85.483,40H50l8.284-8.284c6.339-6.339,14.588-10.318,23.392-11.403
		c0.049-0.006,0.098-0.012,0.146-0.018c0.725-0.087,1.452-0.155,2.183-0.202c0.084-0.006,0.168-0.014,0.252-0.019
		C85.026,20.029,85.796,20,86.569,20h0.072h23.476h0.072c6.229,0,12.103,2.903,15.887,7.851L227.87,160.966
		C237.186,173.149,250.712,181.158,265.552,183.662z"/>
	<path id="XMLID_2004_" style="fill:#6D4E3C;" d="M238.009,171.473c-14.993-2.428-28.674-10.477-38.072-22.767l-27.87-36.445l0,0
		c-10.96,0-20.583-7.416-23.238-18.05c-2.311-9.256-5.643-19.718-9.903-25.288l-25.49-33.333c-3.784-4.948-9.658-7.851-15.887-7.851
		H62.742c5.505-4.03,11.957-6.592,18.743-7.428c0.049-0.006,0.098-0.012,0.146-0.018c0.725-0.087,1.452-0.155,2.183-0.202
		c0.084-0.006,0.168-0.014,0.252-0.019C84.835,20.029,85.604,20,86.377,20h0.072h23.476h0.072c6.229,0,12.103,2.903,15.887,7.851
		l101.794,133.115C230.708,164.928,234.189,168.44,238.009,171.473z"/>
</g>
<g>
</g>
<g>
</g>
<g>
</g>
<g>
</g>
<g>
</g>
<g>
</g>
<g>
</g>
<g>
</g>
<g>
</g>
<g>
</g>
<g>
</g>
<g>
</g>
<g>
</g>
<g>
</g>
<g>
</g>
</svg>
