<?xml version="1.0" encoding="iso-8859-1"?>
<!-- Generator: Adobe Illustrator 19.0.0, SVG Export Plug-In . SVG Version: 6.00 Build 0)  -->
<svg version="1.1" id="Layer_1" xmlns="http://www.w3.org/2000/svg" xmlns:xlink="http://www.w3.org/1999/xlink" x="0px" y="0px"
	 viewBox="0 0 425.617 425.617" style="enable-background:new 0 0 425.617 425.617;" xml:space="preserve">
<g>
	<g>
		<path style="fill:#E94F3D;" d="M197.152,234.762c0.001-20.57-16.673-37.244-37.242-37.243c-20.567,0-37.242,16.675-37.241,37.243
			v190.855c41.135,0,74.483-33.348,74.483-74.483V234.762z"/>
		<path style="fill:#0075C9;" d="M173.179,220.775c0.001-13.95-11.307-25.257-25.255-25.256c-13.948,0-25.255,11.308-25.255,25.256
			v139.506c27.896,0,50.51-22.615,50.51-50.51V220.775z"/>
	</g>
	<rect x="214.372" y="313.376" style="fill:#65513C;" width="41.583" height="17.361"/>
	<g>
		<path style="fill:#FFB648;" d="M240.203,308.811c-0.354-1.732-1.886-3.034-3.723-3.034h-5.316c-2.099,0-3.8,1.702-3.8,3.8
			c0,2.099,1.701,3.8,3.8,3.8h1.516v6.756c0,2.099,1.702,3.8,3.8,3.8c2.099,0,3.8-1.701,3.8-3.8v-10.556
			C240.28,309.314,240.253,309.058,240.203,308.811z"/>
		<g>
			<path style="fill:#FFB648;" d="M232.602,308.811c-0.354-1.732-1.886-3.034-3.723-3.034h-5.316c-2.099,0-3.8,1.702-3.8,3.8
				c0,2.099,1.701,3.8,3.8,3.8h1.516v6.756c0,2.099,1.702,3.8,3.8,3.8c2.099,0,3.8-1.701,3.8-3.8v-10.556
				C232.68,309.314,232.653,309.058,232.602,308.811z"/>
		</g>
		<path style="fill:#FFB648;" d="M225.002,308.811c-0.354-1.732-1.886-3.034-3.723-3.034h-10.206c-2.099,0-3.8,1.702-3.8,3.8
			c0,2.099,1.701,3.8,3.8,3.8h6.406v6.756c0,2.099,1.701,3.8,3.8,3.8s3.8-1.701,3.8-3.8v-10.556
			C225.08,309.314,225.053,309.058,225.002,308.811z"/>
	</g>
	<path style="fill:#E94F3D;" d="M194.914,104.949c-39.9,0-72.245,32.345-72.245,72.245v65.938c0,39.9,32.345,72.245,72.245,72.245
		s72.245-32.345,72.245-72.245v-65.938C267.159,137.294,234.814,104.949,194.914,104.949z"/>
	<g>
		<g>
			<path style="fill:#333E48;" d="M288.711,52.869c0,27.987-22.688,50.675-50.676,50.675c-27.987,0-50.675-22.688-50.675-50.675
				H288.711z"/>
			<path style="fill:#FADF8D;" d="M222.446,4.373c-32.405,0-60.338,19.128-73.137,46.707h91.557
				c25.186,0,47.604,11.79,62.083,30.136C300.99,38.447,265.699,4.373,222.446,4.373z"/>
		</g>
		<path style="fill:#E94F3D;" d="M228.121,0h-33.082c-36.541,0-66.164,29.623-66.164,66.164s29.623,66.164,66.164,66.164
			s66.164-29.623,66.164-66.164V33.083C261.202,14.811,246.391,0,228.121,0z"/>
		<path style="fill:#FFFFFF;" d="M228.483,31.283c-5.525-5.524-13.157-8.941-21.586-8.941c-16.859,0-30.527,13.667-30.527,30.527
			c0,8.43,3.417,16.062,8.941,21.586l46.63,46.63c17.649-11.882,29.261-32.045,29.261-54.922v-2.161L228.483,31.283z"/>
		<circle style="fill:#333E48;" cx="206.897" cy="52.87" r="5.8"/>
	</g>
	<rect x="174.955" y="313.376" style="fill:#65513C;" width="40.5" height="17.361"/>
	<g>
		<path style="fill:#FFB648;" d="M212.086,308.811c-0.354-1.732-1.886-3.034-3.723-3.034h-5.316c-2.099,0-3.8,1.702-3.8,3.8
			c0,2.099,1.701,3.8,3.8,3.8h1.516v6.756c0,2.099,1.702,3.8,3.8,3.8c2.099,0,3.8-1.701,3.8-3.8v-10.556
			C212.164,309.314,212.137,309.058,212.086,308.811z"/>
		<g>
			<path style="fill:#FFB648;" d="M204.486,308.811c-0.354-1.732-1.886-3.034-3.723-3.034h-5.316c-2.099,0-3.8,1.702-3.8,3.8
				c0,2.099,1.701,3.8,3.8,3.8h1.516v6.756c0,2.099,1.702,3.8,3.8,3.8c2.099,0,3.8-1.701,3.8-3.8v-10.556
				C204.563,309.314,204.537,309.058,204.486,308.811z"/>
		</g>
		<path style="fill:#FFB648;" d="M196.886,308.811c-0.354-1.732-1.886-3.034-3.723-3.034h-5.315c-2.099,0-3.8,1.702-3.8,3.8
			c0,2.099,1.701,3.8,3.8,3.8h1.516v6.756c0,2.099,1.701,3.8,3.8,3.8s3.8-1.701,3.8-3.8v-10.556
			C196.963,309.314,196.936,309.058,196.886,308.811z"/>
	</g>
	<g>
		<path style="fill:#0075C9;" d="M207.173,172.821c0.001-18.235-14.78-33.016-33.014-33.015c-18.232,0-33.014,14.782-33.013,33.015
			l-0.001,146.112c36.465,0,66.027-29.562,66.027-66.027L207.173,172.821z"/>
		<path style="fill:#00B070;" d="M207.173,172.821c0.001-18.235-14.78-33.016-33.014-33.015c-18.232,0-33.014,14.782-33.013,33.015
			l-0.001,113.503c36.465,0,66.027-29.562,66.027-66.027L207.173,172.821z"/>
		<path style="fill:#FFB648;" d="M207.173,172.821c0.001-18.235-14.78-33.016-33.014-33.015c-18.232,0-33.014,14.782-33.013,33.015
			l-0.001,92.559c36.465,0,66.027-29.562,66.027-66.027L207.173,172.821z"/>
		<path style="fill:#A3382A;" d="M207.173,172.821c0.001-18.235-14.78-33.016-33.014-33.015c-18.232,0-33.014,14.782-33.013,33.015
			l-0.001,78.229c36.465,0,66.027-29.561,66.027-66.026L207.173,172.821z"/>
	</g>
</g>
<g>
</g>
<g>
</g>
<g>
</g>
<g>
</g>
<g>
</g>
<g>
</g>
<g>
</g>
<g>
</g>
<g>
</g>
<g>
</g>
<g>
</g>
<g>
</g>
<g>
</g>
<g>
</g>
<g>
</g>
</svg>
