<?xml version="1.0" encoding="iso-8859-1"?>
<!-- Generator: Adobe Illustrator 19.0.0, SVG Export Plug-In . SVG Version: 6.00 Build 0)  -->
<svg version="1.1" id="Layer_1" xmlns="http://www.w3.org/2000/svg" xmlns:xlink="http://www.w3.org/1999/xlink" x="0px" y="0px"
	 viewBox="0 0 357.829 357.829" style="enable-background:new 0 0 357.829 357.829;" xml:space="preserve">
<g>
	<rect x="86.085" y="319.643" style="fill:#65513C;" width="185.656" height="38.186"/>
	<path style="fill:#5C6670;" d="M270.16,0c-16.343,0-29.655,12.943-30.265,29.136c-16.161-14.532-37.535-23.383-60.98-23.383
		s-44.818,8.851-60.98,23.383C117.326,12.943,104.013,0,87.671,0v91.491h0.181c-0.109,1.823-0.181,3.656-0.181,5.507v164.995
		c0,31.839,25.811,57.649,57.649,57.649h67.19c31.839,0,57.649-25.811,57.649-57.649V96.998c0-1.851-0.072-3.684-0.181-5.507h0.181
		V0H270.16z"/>
	<path style="fill:#7D868C;" d="M270.16,96.998c0-32.605-26.432-59.037-59.037-59.037c-11.886,0-22.943,3.525-32.208,9.568
		c-9.264-6.043-20.321-9.567-32.207-9.567c-32.606-0.001-59.038,26.431-59.036,59.037c0,16.302,6.608,31.061,17.292,41.745h-0.001
		l73.954,73.952l73.954-73.952h-0.001C263.551,128.061,270.16,113.301,270.16,96.998z"/>
	<g>
		<circle style="fill:#5C6670;" cx="131.286" cy="91.491" r="25.497"/>
		<circle style="fill:#333E48;" cx="131.286" cy="91.491" r="9.261"/>
	</g>
	<g>
		<circle style="fill:#5C6670;" cx="226.544" cy="91.491" r="25.497"/>
		<circle style="fill:#333E48;" cx="226.544" cy="91.491" r="9.261"/>
	</g>
	<path style="fill:#FFB648;" d="M193.999,121.541l-15.084,15.086l-15.084-15.086c0-8.33,6.753-15.083,15.084-15.083
		C187.247,106.458,193.999,113.211,193.999,121.541z"/>
	<path style="fill:#333E48;" d="M140.971,175.839c0-21.761-17.637-39.397-39.397-39.397c-21.757,0-39.396,17.639-39.395,39.397
		v113.112c43.514,0,78.789-35.274,78.792-78.79V175.839z"/>
	<path style="fill:#333E48;" d="M216.859,175.839c0-21.761,17.637-39.397,39.397-39.397c21.757,0,39.396,17.639,39.395,39.397
		v113.112c-43.514,0-78.789-35.274-78.792-78.79V175.839z"/>
	<g>
		<path style="fill:#FFB648;" d="M123.127,307.38c-3.583,0-6.489,2.905-6.489,6.488v9.345c0,3.584,2.905,6.489,6.489,6.489
			s6.489-2.905,6.489-6.489v-9.345C129.616,310.285,126.711,307.38,123.127,307.38z"/>
		<path style="fill:#FFB648;" d="M136.105,307.38c-3.584,0-6.489,2.905-6.489,6.488v9.345c0,3.584,2.905,6.489,6.489,6.489
			s6.489-2.905,6.489-6.489v-9.345C142.592,310.285,139.689,307.38,136.105,307.38z"/>
		<path style="fill:#FFB648;" d="M149.081,307.38c-3.583,0-6.489,2.905-6.489,6.488v9.345c0,3.584,2.905,6.489,6.489,6.489
			s6.489-2.905,6.489-6.489v-9.345C155.571,310.285,152.665,307.38,149.081,307.38z"/>
	</g>
	<g>
		<path style="fill:#FFB648;" d="M234.702,307.38c3.584,0,6.489,2.905,6.489,6.488v9.345c0,3.584-2.905,6.489-6.489,6.489
			s-6.489-2.905-6.489-6.489v-9.345C228.214,310.285,231.118,307.38,234.702,307.38z"/>
		<path style="fill:#FFB648;" d="M221.726,307.38c3.584,0,6.489,2.905,6.489,6.488v9.345c0,3.584-2.905,6.489-6.489,6.489
			s-6.489-2.905-6.489-6.489v-9.345C215.236,310.285,218.142,307.38,221.726,307.38z"/>
		<path style="fill:#FFB648;" d="M208.747,307.38c3.583,0,6.489,2.905,6.489,6.488v9.345c0,3.584-2.905,6.489-6.489,6.489
			s-6.489-2.905-6.489-6.489v-9.345C202.258,310.285,205.163,307.38,208.747,307.38z"/>
	</g>
</g>
<g>
</g>
<g>
</g>
<g>
</g>
<g>
</g>
<g>
</g>
<g>
</g>
<g>
</g>
<g>
</g>
<g>
</g>
<g>
</g>
<g>
</g>
<g>
</g>
<g>
</g>
<g>
</g>
<g>
</g>
</svg>
