<?xml version="1.0" encoding="iso-8859-1"?>
<!-- Generator: Adobe Illustrator 19.0.0, SVG Export Plug-In . SVG Version: 6.00 Build 0)  -->
<svg version="1.1" id="Layer_1" xmlns="http://www.w3.org/2000/svg" xmlns:xlink="http://www.w3.org/1999/xlink" x="0px" y="0px"
	 viewBox="0 0 348.039 348.039" style="enable-background:new 0 0 348.039 348.039;" xml:space="preserve">
<g>
	<g>
		<path style="fill:#FFB648;" d="M23.655,94.27C10.59,94.27,0,104.861,0,117.925h35V94.27H23.655z"/>
		<path style="fill:#ED9900;" d="M23.04,134.523c-9.168,0-16.599-7.431-16.599-16.598H35v16.598H23.04z"/>
	</g>
	<path style="fill:#E94F3D;" d="M124.977,26.843c-3.653-3.419-9.385-3.228-12.804,0.424L100.124,40.14l9.265-14.76
		c0.347-0.561,0.663-1.206,0.888-1.854c1.637-4.728-0.87-9.887-5.598-11.523s-9.887,0.87-11.522,5.598l-5.438,15.714l1.668-14.616
		c0.071-0.654,0.078-1.373,0-2.055c-0.567-4.971-5.057-8.54-10.027-7.973s-8.54,5.057-7.973,10.027l2.241,19.635l-6.011-17.369
		c-0.219-0.62-0.523-1.271-0.888-1.853c-2.66-4.237-8.251-5.517-12.488-2.856c-4.237,2.659-5.517,8.25-2.856,12.488l19.529,31.115
		c1.177,1.875,3.53,2.766,5.712,2.011c1.271-0.44,2.242-1.354,2.786-2.476c0.141,0.029,0.277,0.069,0.423,0.086
		c1.436,0.164,2.783-0.328,3.782-1.221c0.75,0.367,1.551,0.542,2.343,0.505c0.137,0.471,0.335,0.931,0.623,1.359
		c1.497,2.231,4.52,2.825,6.75,1.328l30.503-20.474c0.544-0.37,1.097-0.83,1.564-1.331
		C128.818,35.994,128.629,30.262,124.977,26.843z"/>
	<g>
		<path style="fill:#B36F0F;" d="M167.467,326.753h-5.248v-46.757h-13.336v46.757H130.63c-3.5,0-6.338,2.838-6.338,6.338
			s2.838,6.336,6.338,6.336h36.837c3.5,0,6.337-2.837,6.337-6.337S170.967,326.753,167.467,326.753z"/>
		<g>
			<path style="fill:#DADBDC;" d="M167.425,272.03c0-6.559-5.314-11.876-11.873-11.876s-11.875,5.317-11.875,11.876v10.336
				c0,6.559,5.316,11.875,11.875,11.875s11.873-5.316,11.873-11.875V272.03z"/>
		</g>
	</g>
	<g>
		<path style="fill:#ED9900;" d="M198.652,326.753h-5.248v-46.757h-13.336v46.757h-18.253c-3.5,0-6.338,2.838-6.338,6.338
			s2.838,6.336,6.338,6.336h36.837c3.5,0,6.337-2.837,6.337-6.337S202.152,326.753,198.652,326.753z"/>
		<g>
			<path style="fill:#DADBDC;" d="M198.61,272.03c0-6.559-5.314-11.876-11.873-11.876c-6.56,0-11.875,5.317-11.875,11.876v10.336
				c0,6.559,5.315,11.875,11.875,11.875c6.559,0,11.873-5.316,11.873-11.875V272.03z"/>
		</g>
	</g>
	<path style="fill:#DADBDC;" d="M333.114,148.182h-0.503l4.753-4.753c5.829-5.828,5.828-15.279-0.001-21.108
		c-5.829-5.829-15.279-5.829-21.108-0.001l-4.675,4.675v-12.273c0-8.243-6.683-14.926-14.926-14.926
		c-8.244,0-14.927,6.683-14.927,14.926v33.461H133.5V99.795c0-28.338-22.973-51.311-51.312-51.311
		c-28.338,0-51.311,22.973-51.311,51.311v48.387c0,77.514,62.837,140.352,140.352,140.352c67.267,0,123.473-47.327,137.158-110.498
		h24.727c8.242,0,14.926-6.683,14.925-14.926C348.04,154.866,341.357,148.183,333.114,148.182z"/>
	<circle style="fill:#333E48;" cx="64.386" cy="93.603" r="7.73"/>
	<path style="fill:#E8E8E8;" d="M245.1,198.936c0.265-0.643,0.498-1.301,0.7-1.974c0.019-0.055,0.039-0.107,0.058-0.163
		l-0.012-0.017c0.557-1.913,0.87-3.93,0.87-6.023c0-11.9-9.646-21.548-21.549-21.549h-78.736c-24.121,0-43.675,19.554-43.675,43.675
		c0,24.12,19.554,43.674,43.675,43.674h16.525c11.823,0,23.093-2.358,33.378-6.615c3.152,1.808,6.795,2.855,10.689,2.855
		c9.951,0,18.302-6.751,20.781-15.917c10.655-1.302,18.911-10.364,18.911-21.371c0-4.346-1.298-8.386-3.512-11.771
		C243.884,202.162,244.513,200.56,245.1,198.936z"/>
	<path style="fill:#E94F3D;" d="M20.833,157.436l3.241-22.487c0.299-2.076,2.225-3.517,4.301-3.218
		c1.706,0.246,2.982,1.595,3.218,3.218l3.24,22.487c0.558,3.866-2.125,7.452-5.991,8.009s-7.451-2.125-8.009-5.991
		C20.736,158.779,20.744,158.079,20.833,157.436z"/>
</g>
<g>
</g>
<g>
</g>
<g>
</g>
<g>
</g>
<g>
</g>
<g>
</g>
<g>
</g>
<g>
</g>
<g>
</g>
<g>
</g>
<g>
</g>
<g>
</g>
<g>
</g>
<g>
</g>
<g>
</g>
</svg>
