<?xml version="1.0" encoding="iso-8859-1"?>
<!-- Generator: Adobe Illustrator 18.0.0, SVG Export Plug-In . SVG Version: 6.00 Build 0)  -->
<!DOCTYPE svg PUBLIC "-//W3C//DTD SVG 1.1//EN" "http://www.w3.org/Graphics/SVG/1.1/DTD/svg11.dtd">
<svg version="1.1" id="Capa_1" xmlns="http://www.w3.org/2000/svg" xmlns:xlink="http://www.w3.org/1999/xlink" x="0px" y="0px"
	 viewBox="0 0 459.05 459.05" style="enable-background:new 0 0 459.05 459.05;" xml:space="preserve">
<g>
	<path style="fill:#36889E;" d="M321.057,131.529l0.148,0.284c2.18,4.209,4.173,8.471,5.974,12.775
		c3.532,8.432,6.325,17.023,8.416,25.675c2.586,10.706,4.09,21.523,4.557,32.317c0.712,16.247-0.93,32.411-4.768,48.017
		c-11.266,45.886-41.477,86.865-86.68,110.395c-24.703,12.859-51.126,19.06-77.19,19.256c-2.156,0.017-4.312-0.01-6.455-0.078
		c-19.413-0.605-38.535-4.529-56.522-11.513c-37.157-14.422-69.438-41.892-89.288-80.024c-7.812-15.008-13.171-30.652-16.202-46.458
		c-0.151-0.744-0.293-1.494-0.421-2.239c-0.542-3.055-1.008-6.116-1.371-9.174c-3.41-27.818,0.195-55.827,10.027-81.531
		c0.219-0.576,0.437-1.152,0.679-1.706c14.505-36.761,41.832-68.663,79.637-88.342c79.166-41.21,175.827-14.052,222.493,60.199
		C316.557,123.297,318.882,127.351,321.057,131.529z"/>
	<path style="fill:#CCCCCC;" d="M456.529,206.944c-5.97,10.94-22.1,19.28-43.95,26.33c-21.44,6.94-48.69,12.1-77.2,17.32
		c-49.02,8.98-101.8,18.18-135.36,37.02c-14.4,8.09-27.3,16.55-38.78,25.34c0,0,31,51.02-5.45,93.05
		c-32.38,37.33-19.05-13.41-40.19-47.54c-2.5,3.37-4.85,6.77-7.06,10.19c-14.77-5.73-28.77-13.52-41.52-23.24
		c-19.34-14.7-35.81-33.8-47.77-56.78c-7.81-15.01-13.17-30.65-16.2-46.46c-0.15-0.74-0.29-1.49-0.42-2.24
		c-0.55-3.05-1.01-6.11-1.37-9.17c-3.41-27.82,0.19-55.83,10.02-81.53c0.22-0.58,0.44-1.15,0.68-1.71
		c112.04-59.58,235.16-59.57,302.13-28.14c25.41,11.92,42.74,28.36,48.33,47.79c0,0,11.08-0.3,25.72,0.54
		c27.48,1.56,67.52,7.1,70.62,26c0.12,0.71,0.2,1.4,0.24,2.09C459.279,199.804,458.409,203.504,456.529,206.944z"/>
	<path style="fill:#4D4D4D;" d="M315.443,192.324c5.06,3.735,6.072,10.867,2.261,15.929c-3.811,5.062-11.002,6.137-16.061,2.402
		c-5.06-3.735-6.072-10.867-2.261-15.929C303.192,189.664,310.383,188.589,315.443,192.324z"/>
	<path style="fill:#E6E6E6;" d="M456.529,206.944c-5.97,10.94-22.1,19.28-43.95,26.33c-21.44,6.94-48.69,12.1-77.2,17.32
		c-49.02,8.98-101.8,18.18-135.36,37.02c-14.4,8.09-27.3,16.55-38.78,25.34c0,0,31,51.02-5.45,93.05
		c-32.38,37.33-19.05-13.41-40.19-47.54c-2.5,3.37-4.85,6.77-7.06,10.19c-14.77-5.73-28.77-13.52-41.52-23.24
		c35.57-13.33,61.57-44.66,121.84-77.89c71.34-39.33,220.67-48.67,242.67-54.67s27.23-19.14,27.23-19.14
		c0.12,0.71,0.2,1.4,0.24,2.09C459.279,199.804,458.409,203.504,456.529,206.944z"/>
</g>
<g>
</g>
<g>
</g>
<g>
</g>
<g>
</g>
<g>
</g>
<g>
</g>
<g>
</g>
<g>
</g>
<g>
</g>
<g>
</g>
<g>
</g>
<g>
</g>
<g>
</g>
<g>
</g>
<g>
</g>
</svg>
