<?xml version="1.0" encoding="iso-8859-1"?>
<!-- Generator: Adobe Illustrator 19.0.0, SVG Export Plug-In . SVG Version: 6.00 Build 0)  -->
<svg version="1.1" id="Capa_1" xmlns="http://www.w3.org/2000/svg" xmlns:xlink="http://www.w3.org/1999/xlink" x="0px" y="0px"
	 viewBox="0 0 512.002 512.002" style="enable-background:new 0 0 512.002 512.002;" xml:space="preserve">
<path style="fill:#A56F4A;" d="M476.837,282.505c-10.11-16.384-16.014-36.09-16.014-58.654c0-99.194-91.702-179.607-204.822-179.607
	c-113.876,0-205.145,81.259-204.821,179.953c0.045,20.561-5.217,40.809-16.015,58.308C-17.124,367.24,57.852,460.34,190.118,484.794
	h131.766c99.063-18.315,171.524-76.884,171.524-146.312C493.408,318.715,487.529,299.831,476.837,282.505z"/>
<g>
	<path style="fill:#93603E;" d="M54.518,282.505c10.111-16.385,16.014-36.09,16.014-58.654c0-96.349,86.519-174.971,195.145-179.402
		C147.54,39.628,50.847,122.604,51.18,224.197c0.045,20.561-5.217,40.809-16.015,58.308
		C-17.124,367.24,57.852,460.34,190.118,484.794h19.353C76.236,460.161,2.609,366.625,54.518,282.505z"/>
	<path style="fill:#93603E;" d="M439.048,143.202c59.891-17.629,85.369-103.336,39.549-134.404
		c-39.075-26.496-99.371,10.197-109.258,65.439C398.867,91.472,422.998,115.245,439.048,143.202z"/>
</g>
<path style="fill:#845535;" d="M417.953,89.684c-15.309-11.96-19.615-34.138-8.036-51.214
	c13.494-19.901,32.736-32.814,51.998-36.948c-39.308-9.229-84.292,26.437-92.575,72.715c29.527,17.234,53.658,41.007,69.709,68.965
	c6.845-2.015,13.62-5.136,20.075-9.255C448.138,117.323,434.209,102.384,417.953,89.684z"/>
<path style="fill:#A56F4A;" d="M474.089,53.235c-26.188-17.757-66.294,2.413-78.946,38.834
	c17.893,14.534,32.823,31.833,43.902,51.127c22.199-6.553,40.594-23.273,51.677-43.37C493.964,80.935,488.236,62.828,474.089,53.235
	z"/>
<g>
	<path style="fill:#93603E;" d="M459.123,133.947c-10.985-16.624-24.914-31.563-41.17-44.263
		c-5.852-4.571-10.03-10.56-12.384-17.126c-4.635,6.188-8.074,12.739-10.426,19.51c20.295,17.396,30.176,28.479,43.902,51.127
		C446.318,141.047,452.793,137.944,459.123,133.947z"/>
	<path style="fill:#93603E;" d="M72.954,143.202c16.05-27.958,40.181-51.731,69.709-68.965
		C132.736,18.776,72.351-17.61,33.404,8.799C-12.411,39.864,13.056,125.572,72.954,143.202z"/>
</g>
<path style="fill:#845535;" d="M73.999,1.162C59.57-1.503,45.235,0.777,33.404,8.799c-45.815,31.065-20.348,116.773,39.549,134.404
	c1.492-2.6,3.078-5.15,4.708-7.675C18.992,100.972,16.543,12.643,73.999,1.162z"/>
<path style="fill:#A56F4A;" d="M116.859,92.068c-12.703-36.567-52.856-56.523-78.946-38.833
	c-14.148,9.593-19.875,27.701-16.632,46.59c11.065,20.078,29.552,36.863,51.677,43.37C84.036,123.901,98.966,106.602,116.859,92.068
	z"/>
<path style="fill:#93603E;" d="M72.958,143.196c0.53-0.972,2.645-4.515,4.687-7.679C50.807,119.702,32.356,88.745,32.142,58.12
	c-9.869,10.178-13.618,25.648-10.861,41.705C33.501,121.996,52.923,137.307,72.958,143.196z"/>
<g>
	<circle style="fill:#585A60;" cx="327.121" cy="236.911" r="21.21"/>
	<circle style="fill:#585A60;" cx="184.881" cy="236.911" r="21.21"/>
</g>
<g>
	<path style="fill:#424449;" d="M338.753,219.188c-14.026-9.226-32.84,0.831-32.84,17.72c0,16.866,18.793,26.96,32.84,17.72
		C325.981,246.227,326.01,227.571,338.753,219.188z"/>
	<path style="fill:#424449;" d="M196.516,219.188c-14.026-9.226-32.839,0.831-32.839,17.72c0,16.866,18.793,26.96,32.839,17.72
		C183.744,246.227,183.773,227.571,196.516,219.188z"/>
</g>
<path style="fill:#93603E;" d="M377.032,379.333c0,50.132-54.187,132.668-121.031,132.668S134.97,429.465,134.97,379.333
	s54.187-90.774,121.031-90.774S377.032,329.2,377.032,379.333z"/>
<path style="fill:#845535;" d="M155.572,379.332c0-47.53,48.709-86.521,110.73-90.443c-71.056-4.493-131.332,37.514-131.332,90.443
	c0,52.561,59.639,141.056,131.332,132.005C204.281,503.506,155.572,426.862,155.572,379.332z"/>
<path style="fill:#A56F4A;" d="M256.001,451.612c-4.267,0-7.726,3.458-7.726,7.726v52.283c5.35,0.507,10.096,0.508,15.451,0v-52.283
	C263.726,455.07,260.268,451.612,256.001,451.612z"/>
<path style="fill:#585A60;" d="M316.516,416.136c0,17.755-27.094,46.987-60.515,46.987c-33.422,0-60.516-29.231-60.516-46.987
	c0-17.755,27.094-32.149,60.516-32.149C289.423,383.988,316.516,398.381,316.516,416.136z"/>
<path style="fill:#424449;" d="M216.389,416.136c0-15.861,21.626-29.029,50.064-31.661c-37.257-3.448-70.967,11.785-70.967,31.661
	c0,19.407,32.55,52.988,70.967,46.02C238.015,456.997,216.389,431.997,216.389,416.136z"/>
<g>
</g>
<g>
</g>
<g>
</g>
<g>
</g>
<g>
</g>
<g>
</g>
<g>
</g>
<g>
</g>
<g>
</g>
<g>
</g>
<g>
</g>
<g>
</g>
<g>
</g>
<g>
</g>
<g>
</g>
</svg>
