<?xml version="1.0" encoding="iso-8859-1"?>
<!-- Generator: Adobe Illustrator 19.0.0, SVG Export Plug-In . SVG Version: 6.00 Build 0)  -->
<svg version="1.1" id="Capa_1" xmlns="http://www.w3.org/2000/svg" xmlns:xlink="http://www.w3.org/1999/xlink" x="0px" y="0px"
	 viewBox="0 0 512 512" style="enable-background:new 0 0 512 512;" xml:space="preserve">
<g>
	<path style="fill:#965A50;" d="M428.698,223.714l-62.984,16.254c0,0,34.54,75.683,32.508,105.651
		c-2.748,40.542-24.381,89.397-24.381,89.397h-4.538c-6.996,0-13.208,4.477-15.42,11.114l-2.297,6.892
		c-1.046,3.136,1.289,6.375,4.595,6.375h30.686c1.955,0,3.719-1.176,4.471-2.981l39.393-94.543L428.698,223.714z"/>
	<path style="fill:#965A50;" d="M248.232,446.129l-2.297,6.892c-1.046,3.136,1.289,6.375,4.595,6.375h36.784
		c2.831,0,5.059-2.418,4.827-5.24l-7.697-93.808l-26.413-96l-36.571,4.063c26.921,66.032,46.73,166.603,46.73,166.603h-4.538
		C256.656,435.015,250.445,439.492,248.232,446.129z"/>
</g>
<path style="fill:#AF6E5A;" d="M503.873,304.983c-2.079,0-4.159-0.794-5.746-2.381l-0.984-0.984
	c-6.143-6.147-9.524-14.31-9.524-22.988v-37.52c0-8.175-4.056-15.754-10.857-20.286l-34.286-22.857
	c-3.738-2.488-4.746-7.536-2.254-11.27c2.476-3.734,7.524-4.754,11.27-2.254l34.286,22.857c11.333,7.548,18.095,20.187,18.095,33.81
	v37.52c0,4.337,1.69,8.421,4.762,11.496l0.984,0.984c3.175,3.175,3.175,8.317,0,11.492
	C508.032,304.19,505.952,304.983,503.873,304.983z"/>
<path style="fill:#C0826C;" d="M484.64,333.022l-7.814-11.722c-3.561-5.341-5.46-11.617-5.46-18.035v-87.678
	c0-5.761-0.287-10.517-1.216-16.254l0,0l0,0c-5.685-36.695-30.357-58.663-54.317-76.19c-36.571-26.751-42.667-55.196-69.758-55.196
	c-25.698,0-15.238,31.492-46.391,31.153c-27.427-0.298-21.436-41.649-50.454-33.185c-24.381,7.111-35.387,78.561-60.276,111.069
	c-6.425,8.392-20.317,22.349-38.35,22.349h-4.316c-17.954,0-32.508-14.555-32.508-32.508V53.047H75.115
	c-6.466,0-12.669,2.568-17.24,7.141l-9.113,9.113l-28.389,4.732C8.617,75.992,0,86.163,0,98.082v3.727
	c0,4.488,3.639,8.127,8.127,8.127h64.339v70.429c0,45.39,45.613,87.712,114.266,87.742c4.558,0.002,8.315,3.549,8.315,8.108v158.801
	h-4.539c-6.996,0-13.207,4.477-15.42,11.113l-1.034,3.102c-1.667,5.001,2.056,10.166,7.327,10.166h30.855
	c4.052,0,7.415-3.131,7.702-7.173l12.131-169.834c42.491-0.505,116.282-9.676,166.51-44.866l4.282,19.262
	c2.314,10.413,6.081,20.448,11.188,29.813l41.06,75.275v73.143h-4.539c-6.996,0-13.207,4.477-15.42,11.113l-1.034,3.102
	c-1.667,5.001,2.056,10.166,7.327,10.166h30.82c4.066,0,7.436-3.153,7.705-7.209l7.29-109.336
	C487.494,339.375,486.571,335.92,484.64,333.022z"/>
<path style="fill:#4B3F4E;" d="M74.159,86.317h-3.302c-4.492,0-8.127-3.639-8.127-8.127s3.635-8.127,8.127-8.127h3.302
	c4.492,0,8.127,3.639,8.127,8.127S78.651,86.317,74.159,86.317z"/>
<g>
	<path style="fill:#AF6E5A;" d="M96.046,64.553l7.143,11.035c2.119,3.274,6.624,3.959,9.62,1.462l13.907-11.59
		c1.943-1.619,2.081-4.567,0.237-6.298c-4.454-4.18-13.763-9.884-28.068-4.115C95.177,56.543,93.873,61.196,96.046,64.553z"/>
	<path style="fill:#AF6E5A;" d="M170.667,239.967L170.667,239.967c-40.396,0-73.143-32.747-73.143-73.143v-32.508
		c0-13.465-10.916-24.381-24.381-24.381h-0.677v70.429c0,45.39,45.613,87.712,114.266,87.742c3.289,0.001,6.109,1.884,7.454,4.625
		c0.553-0.164,0.861-0.256,0.861-0.256v-8.127C195.048,250.883,184.132,239.967,170.667,239.967z"/>
	<path style="fill:#AF6E5A;" d="M32.508,93.682v-8.127c0-4.662-1.019-9.072-2.786-13.08l-9.349,1.558
		C8.617,75.992,0,86.163,0,98.082v3.727c0,4.488,3.639,8.127,8.127,8.127h19.872C30.792,105.138,32.508,99.633,32.508,93.682z"/>
	<path style="fill:#AF6E5A;" d="M232.071,271.442v10.946c42.491-0.505,116.282-9.676,166.51-44.866l-0.16-1.733
		c-0.767-8.296-9.13-13.478-16.993-10.722c-42.566,14.921-96.543,20.2-126.567,22.049
		C242.024,247.907,232.071,258.581,232.071,271.442z"/>
</g>
<g>
</g>
<g>
</g>
<g>
</g>
<g>
</g>
<g>
</g>
<g>
</g>
<g>
</g>
<g>
</g>
<g>
</g>
<g>
</g>
<g>
</g>
<g>
</g>
<g>
</g>
<g>
</g>
<g>
</g>
</svg>
