<?xml version="1.0" encoding="iso-8859-1"?>
<!-- Generator: Adobe Illustrator 19.0.0, SVG Export Plug-In . SVG Version: 6.00 Build 0)  -->
<svg version="1.1" id="Layer_1" xmlns="http://www.w3.org/2000/svg" xmlns:xlink="http://www.w3.org/1999/xlink" x="0px" y="0px"
	 viewBox="0 0 428.676 428.676" style="enable-background:new 0 0 428.676 428.676;" xml:space="preserve">
<g>
	<g>
		<path style="fill:#4A5159;" d="M137.124,232.286h-42c-7.7,0-14,6.3-14,14v89.672c0,7.7,6.3,14,14,14h56V246.286
			C151.124,238.586,144.825,232.286,137.124,232.286z"/>
		<path style="fill:#A4A9AD;" d="M142.041,340.459v9.499h9.083v-18.583C146.108,331.375,142.041,335.442,142.041,340.459z"/>
		<path style="opacity:0.3;fill:#7D868C;enable-background:new    ;" d="M137.808,313.047c-1.632,0-2.956,1.323-2.956,2.956
			c0,1.632,1.323,2.955,2.956,2.955h13.316v-5.911L137.808,313.047L137.808,313.047z"/>
	</g>
	<g>
		<path style="fill:#4A5159;" d="M276.147,232.286h-42c-7.7,0-14,6.3-14,14v89.672c0,7.7,6.3,14,14,14h56V246.286
			C290.147,238.586,283.848,232.286,276.147,232.286z"/>
		<path style="fill:#A4A9AD;" d="M281.064,340.459v9.499h9.083v-18.583C285.131,331.375,281.064,335.442,281.064,340.459z"/>
		<path style="opacity:0.3;fill:#7D868C;enable-background:new    ;" d="M276.831,313.047c-1.632,0-2.956,1.323-2.956,2.956
			c0,1.632,1.323,2.955,2.956,2.955h13.316v-5.911L276.831,313.047L276.831,313.047z"/>
	</g>
	<path style="fill:#5C6670;" d="M4.5,180.552c-2.485,0-4.5-2.015-4.5-4.5c0-33.337,27.122-60.459,60.458-60.459
		c2.485,0,4.5,2.015,4.5,4.5s-2.015,4.5-4.5,4.5C32.084,124.593,9,147.677,9,176.052C9,178.537,6.985,180.552,4.5,180.552z"/>
	<path style="fill:#5C6670;" d="M193.032,78.896h-57.408c-61.027,0-110.5,49.473-110.5,110.5s49.473,110.5,110.5,110.5h57.408
		c61.027,0,110.5-49.473,110.5-110.5C303.532,128.369,254.06,78.896,193.032,78.896z"/>
	<g>
		<path style="fill:#5C6670;" d="M111.124,232.286h-42c-7.7,0-14,6.3-14,14v89.672c0,7.7,6.3,14,14,14h56V246.286
			C125.124,238.586,118.825,232.286,111.124,232.286z"/>
		<path style="fill:#A4A9AD;" d="M116.041,340.459v9.499h9.083v-18.583C120.108,331.375,116.041,335.442,116.041,340.459z"/>
		<path style="opacity:0.3;fill:#7D868C;enable-background:new    ;" d="M111.808,313.047c-1.632,0-2.956,1.323-2.956,2.956
			c0,1.632,1.323,2.955,2.956,2.955h13.316v-5.911L111.808,313.047L111.808,313.047z"/>
	</g>
	<g>
		<path style="fill:#5C6670;" d="M250.147,232.286h-42c-7.7,0-14,6.3-14,14v89.672c0,7.7,6.3,14,14,14h56V246.286
			C264.147,238.586,257.848,232.286,250.147,232.286z"/>
		<path style="fill:#A4A9AD;" d="M255.064,340.459v9.499h9.083v-18.583C259.131,331.375,255.064,335.442,255.064,340.459z"/>
		<path style="opacity:0.3;fill:#7D868C;enable-background:new    ;" d="M250.831,313.047c-1.632,0-2.956,1.323-2.956,2.956
			c0,1.632,1.323,2.955,2.956,2.955h13.316v-5.911L250.831,313.047L250.831,313.047z"/>
	</g>
	<g>
		<path style="fill:#5C6670;" d="M412.176,222.958c-9.113,0-16.5,7.388-16.5,16.5c0,11.212-9.122,20.333-20.333,20.333
			s-20.333-9.121-20.333-20.333v-59.819c0.115-1.42,0.189-2.851,0.189-4.3v-27.362c0-21.991-13.483-40.825-32.629-48.71
			c-9.63-12.493-24.733-20.549-41.727-20.549h-27.362c-29.087,0-52.667,23.579-52.667,52.667v96.621h101.718
			c6.883,0,13.451-1.335,19.478-3.735v15.188c0,29.408,23.925,53.333,53.333,53.333c29.408,0,53.333-23.925,53.333-53.333
			C428.676,230.346,421.289,222.958,412.176,222.958z"/>
		<path style="opacity:0.3;fill:#7D868C;enable-background:new    ;" d="M338.51,196.605c0,1.632,1.323,2.956,2.956,2.956h13.316
			v-5.912h-13.316C339.833,193.649,338.51,194.973,338.51,196.605z M338.51,235.811c0,1.633,1.323,2.955,2.956,2.955h13.316v-5.91
			h-13.316C339.833,232.855,338.51,234.179,338.51,235.811z M341.465,174.047c-1.632,0-2.956,1.323-2.956,2.956
			c0,1.632,1.323,2.955,2.956,2.955h13.316v-5.911H341.465z M338.51,216.208c0,1.633,1.323,2.955,2.956,2.955h13.316v-5.91h-13.316
			C339.833,213.253,338.51,214.575,338.51,216.208z"/>
		<path style="fill:#FADF8D;" d="M366.791,269.702h-13.892c-27.478,0-49.833-22.355-49.833-49.833c0-7.18,5.82-13,13-13
			s13,5.82,13,13c0,13.142,10.691,23.833,23.833,23.833h13.892c7.18,0,13,5.82,13,13S373.971,269.702,366.791,269.702z"/>
		<circle style="fill:#333E48;" cx="313.874" cy="146.387" r="7.375"/>
		<path style="fill:#A4A9AD;" d="M176.465,192.017c-0.001,19.721,15.985,35.706,35.706,35.706c19.719,0,35.705-15.986,35.704-35.706
			l0.001-91.052c-39.438,0-71.41,31.972-71.41,71.409L176.465,192.017z"/>
	</g>
</g>
<g>
</g>
<g>
</g>
<g>
</g>
<g>
</g>
<g>
</g>
<g>
</g>
<g>
</g>
<g>
</g>
<g>
</g>
<g>
</g>
<g>
</g>
<g>
</g>
<g>
</g>
<g>
</g>
<g>
</g>
</svg>
