<?xml version="1.0" encoding="iso-8859-1"?>
<!-- Generator: Adobe Illustrator 19.0.0, SVG Export Plug-In . SVG Version: 6.00 Build 0)  -->
<svg version="1.1" id="Layer_1" xmlns="http://www.w3.org/2000/svg" xmlns:xlink="http://www.w3.org/1999/xlink" x="0px" y="0px"
	 viewBox="0 0 496.158 496.158" style="enable-background:new 0 0 496.158 496.158;" xml:space="preserve">
<path style="fill:#CE8F20;" d="M248.075,129.822c-70.331,0-127.354,108.66-127.354,191.029c0,82.362,57.022,107.241,127.354,107.241
	c70.339,0,127.354-24.879,127.354-107.241C375.43,238.481,318.414,129.822,248.075,129.822z"/>
<path style="fill:#F4F4F4;" d="M248.075,184.503c-44.541,0-80.659,68.82-80.659,120.985s36.118,67.917,80.659,67.917
	c44.549,0,80.655-15.752,80.655-67.917C328.73,253.324,292.624,184.503,248.075,184.503z"/>
<path style="fill:#AF731B;" d="M248.075,98.692c-44.942,0-81.367,15.492-81.367,66.796s36.425,91.125,81.367,91.125
	c44.936,0,81.367-39.821,81.367-91.125S293.011,98.692,248.075,98.692z"/>
<g>
	<path style="fill:#EAE2D6;" d="M245.176,211.226h-7.945c-1.323,0-2.398,1.966-2.398,4.388v24.757c0,2.425,1.075,4.392,2.398,4.392
		h7.945c1.323,0,2.398-1.966,2.398-4.392v-24.757C247.574,213.193,246.499,211.226,245.176,211.226z"/>
	<path style="fill:#EAE2D6;" d="M258.617,211.226h-7.948c-1.32,0-2.395,1.966-2.395,4.388v24.757c0,2.425,1.074,4.392,2.395,4.392
		h7.948c1.324,0,2.396-1.966,2.396-4.392v-24.757C261.013,213.193,259.941,211.226,258.617,211.226z"/>
</g>
<g>
	<path style="fill:#BF801B;" d="M248.075,84.687c-51.583,0-93.394,18.243-93.394,78.643c0,25.966,7.742,49.415,20.645,67.734
		c5.352-47.873,35.881-62.891,72.749-62.891c36.86,0,67.39,15.018,72.749,62.887c12.902-18.315,20.645-41.764,20.645-67.73
		C341.469,102.93,299.651,84.687,248.075,84.687z"/>
	<path style="fill:#BF801B;" d="M212.474,88.088c-6.189-17.038-26.146-35.23-40.697-29.944
		c-14.547,5.287-18.181,32.044-11.992,49.085c6.189,17.034,19.854,17.895,34.404,12.612
		C208.736,114.555,218.663,105.126,212.474,88.088z"/>
	<path style="fill:#BF801B;" d="M325.751,58.144c-14.552-5.287-34.508,12.906-40.697,29.944s3.733,26.467,18.281,31.753
		c14.551,5.283,28.215,4.422,34.404-12.612C343.929,90.188,340.298,63.431,325.751,58.144z"/>
</g>
<g>
	<path style="fill:#AF731B;" d="M342.842,202.501c-4.043,3.573-8.075,7.291-12.05,11.269
		c-41.171,41.167-61.444,87.644-45.287,103.802c13.997,13.997,50.75,0.62,87.098-29.967
		C367.874,258.522,357.42,228.482,342.842,202.501z"/>
	<path style="fill:#AF731B;" d="M165.725,213.77c-4.059-4.059-8.171-7.85-12.295-11.483c-14.597,25.943-25.078,55.971-29.833,85.051
		c36.451,30.782,73.38,44.273,87.415,30.235C227.174,301.414,206.896,254.938,165.725,213.77z"/>
</g>
<g>
	<path style="fill:#BF801B;" d="M289.56,113.006c-34.302,0-62.104,27.802-62.104,62.099c0,34.293,27.802,62.095,62.104,62.095
		c34.293,0,62.087-27.802,62.087-62.095C351.647,140.808,323.853,113.006,289.56,113.006z"/>
	<path style="fill:#BF801B;" d="M206.28,113.006c-34.301,0-62.099,27.802-62.099,62.099c0,34.293,27.798,62.095,62.099,62.095
		c34.29,0,62.096-27.802,62.096-62.095C268.376,140.808,240.57,113.006,206.28,113.006z"/>
</g>
<ellipse cx="210.879" cy="140.789" rx="12.838" ry="16.628"/>
<path d="M289.904,124.16c-7.084,0-12.83,7.444-12.83,16.628s5.746,16.628,12.83,16.628c7.092,0,12.838-7.444,12.838-16.628
	S296.996,124.16,289.904,124.16z"/>
<g>
	<circle style="fill:#FFFFFF;" cx="294.899" cy="133.579" r="4.5"/>
	<circle style="fill:#FFFFFF;" cx="215.399" cy="133.579" r="4.5"/>
</g>
<path style="fill:#B2751B;" d="M272.947,187.062c0,0-10.879-5.064-25.381-5.064c-14.501,0-24.405,5.064-24.405,5.064
	c-1.763,2.043-1.763,5.355,0,7.398l21.705,25.201c1.763,2.042,4.613,2.042,6.376,0l21.705-25.201
	C274.711,192.418,274.711,189.105,272.947,187.062z"/>
<g>
	<path style="fill:#AF731B;" d="M180.001,406.49c-17.975,0-32.549,7.096-32.549,15.848c0,8.756,65.091,8.756,65.091,0
		C212.543,413.586,197.972,406.49,180.001,406.49z"/>
	<path style="fill:#AF731B;" d="M317.259,406.49c-17.979,0-32.549,7.096-32.549,15.848c0,8.756,65.09,8.756,65.09,0
		C349.8,413.586,335.229,406.49,317.259,406.49z"/>
</g>
<g>
</g>
<g>
</g>
<g>
</g>
<g>
</g>
<g>
</g>
<g>
</g>
<g>
</g>
<g>
</g>
<g>
</g>
<g>
</g>
<g>
</g>
<g>
</g>
<g>
</g>
<g>
</g>
<g>
</g>
</svg>
