<?xml version="1.0" encoding="iso-8859-1"?>
<!-- Generator: Adobe Illustrator 19.0.0, SVG Export Plug-In . SVG Version: 6.00 Build 0)  -->
<svg version="1.1" id="Layer_1" xmlns="http://www.w3.org/2000/svg" xmlns:xlink="http://www.w3.org/1999/xlink" x="0px" y="0px"
	 viewBox="0 0 512 512" style="enable-background:new 0 0 512 512;" xml:space="preserve">
<path style="fill:#B17E15;" d="M185.492,116.687c-4.383-42.432-19.719-74.132-45.582-94.217C103.847-5.534,60.95,0.446,59.141,0.714
	L48.791,2.25l-2.55,10.147c-0.302,1.197-7.307,29.729-1.397,64.232c5.58,32.582,23.932,76.801,79.672,102.439L185.492,116.687z"/>
<path style="fill:#EFC589;" d="M137.616,150.589c-34.455-15.847-55.213-42.168-61.695-78.231
	c-2.934-16.323-2.24-31.235-1.129-40.925c11.555,0.473,30.147,3.439,46.173,16.019c18.674,14.656,29.892,39.034,33.345,72.458
	L137.616,150.589z"/>
<path style="fill:#9B640D;" d="M326.508,116.687c4.383-42.433,19.719-74.133,45.583-94.218
	c36.062-28.004,78.961-22.024,80.768-21.756l10.351,1.535l2.55,10.148c0.302,1.197,7.307,29.729,1.396,64.231
	c-5.579,32.581-23.932,76.801-79.672,102.439L326.508,116.687"/>
<path style="fill:#B19267;" d="M374.384,150.589c34.455-15.847,55.213-42.168,61.695-78.231c2.934-16.323,2.24-31.234,1.13-40.927
	c-11.555,0.474-30.148,3.439-46.174,16.02c-18.675,14.656-29.893,39.035-33.346,72.458L374.384,150.589"/>
<path style="fill:#EFC589;" d="M147.171,403.007c-0.013,3.43-0.085,6.689-0.206,9.514l-0.015,0.675
	c0,47.041,23.227,70.799,42.711,82.445c22.62,13.52,48.561,16.358,66.339,16.358s43.719-2.838,66.339-16.358
	c19.484-11.647,42.711-35.405,42.711-82.445l-0.015-0.675c-0.12-2.824-0.193-6.083-0.206-9.513
	c-35.559-16.264-72.903-22.005-108.831-22.005C220.073,381.003,182.729,386.743,147.171,403.007z"/>
<path style="fill:#B17E15;" d="M373.97,125.76c-25.394-28.297-65.084-42.644-117.969-42.644s-92.575,14.347-117.969,42.644
	c-25.746,28.689-35.843,70.5-30.011,124.271c4.196,38.688,13.335,61.724,23.917,88.396c4.113,10.367,8.366,21.088,12.684,33.642
	c1.928,5.605,2.59,19.278,2.549,30.938c35.559-16.264,72.902-22.004,108.83-22.004s73.272,5.741,108.831,22.005
	c-0.042-11.66,0.621-25.334,2.549-30.939c4.319-12.556,8.572-23.276,12.684-33.642c10.582-26.672,19.722-49.707,23.917-88.396
	C409.813,196.26,399.715,154.45,373.97,125.76z"/>
<path style="fill:#B19267;" d="M256,512L256,512c17.779,0,43.72-2.838,66.34-16.358c19.484-11.647,42.711-35.405,42.711-82.446
	l-0.015-0.675c-0.12-2.824-0.193-6.082-0.206-9.513c-35.559-16.264-72.903-22.005-108.831-22.005L256,512L256,512z"/>
<path style="fill:#9B640D;" d="M373.97,125.76c-25.394-28.297-65.084-42.644-117.969-42.644l0,0v297.887
	c35.928,0,73.272,5.741,108.831,22.005c-0.042-11.66,0.621-25.334,2.549-30.939c4.319-12.556,8.572-23.276,12.684-33.642
	c10.582-26.672,19.722-49.707,23.917-88.396C409.813,196.26,399.715,154.45,373.97,125.76z"/>
<g>
	<path style="fill:#333333;" d="M183.266,266.443c0-11.513,9.229-20.836,20.569-20.836c11.355,0,20.583,9.324,20.583,20.836
		c0,11.511-9.228,20.843-20.583,20.843C192.495,287.285,183.266,277.954,183.266,266.443z"/>
	<path style="fill:#333333;" d="M328.734,266.443c0-11.598-9.288-20.999-20.725-20.999c-11.45,0-20.739,9.401-20.739,20.999
		c0,11.598,9.288,20.999,20.739,20.999C319.446,287.441,328.734,278.04,328.734,266.443z"/>
	<path style="fill:#333333;" d="M202.095,433.631c0-9.938,7.966-17.986,17.756-17.986c9.802,0,17.768,8.048,17.768,17.986
		c0,9.936-7.965,17.993-17.768,17.993C210.061,451.623,202.095,443.567,202.095,433.631z"/>
	<path style="fill:#333333;" d="M309.906,433.631c0-10.011-8.018-18.126-17.89-18.126c-9.885,0-17.903,8.115-17.903,18.126
		s8.018,18.126,17.903,18.126C301.888,451.758,309.906,443.643,309.906,433.631z"/>
</g>
<path style="fill:#3E2C27;" d="M306.813,177.214L256,154.12l-50.813,23.094l-3.153-16.485c-0.059-0.308-5.939-31.113-9.729-55.718
	c-1.806-11.723,0.943-22.238,7.949-30.405C213.329,59.363,237.786,56.163,256,56.163c18.214,0,42.672,3.2,55.746,18.443
	c7.006,8.168,9.754,18.682,7.949,30.406c-3.79,24.605-9.671,55.409-9.729,55.717L306.813,177.214z"/>
<g>
</g>
<g>
</g>
<g>
</g>
<g>
</g>
<g>
</g>
<g>
</g>
<g>
</g>
<g>
</g>
<g>
</g>
<g>
</g>
<g>
</g>
<g>
</g>
<g>
</g>
<g>
</g>
<g>
</g>
</svg>
