<?xml version="1.0" encoding="iso-8859-1"?>
<!-- Generator: Adobe Illustrator 19.0.0, SVG Export Plug-In . SVG Version: 6.00 Build 0)  -->
<svg version="1.1" id="Layer_1" xmlns="http://www.w3.org/2000/svg" xmlns:xlink="http://www.w3.org/1999/xlink" x="0px" y="0px"
	 viewBox="0 0 512 512" style="enable-background:new 0 0 512 512;" xml:space="preserve">
<path style="fill:#7C797B;" d="M387.827,430.187h-26.982c-2.173,0-3.933,2.585-3.933,5.773v30.566c0,1.969,0.683,3.807,1.817,4.867
	c1.131,1.06,2.554,1.201,3.772,0.371l11.837-8.06l11.834,8.06c0.527,0.358,1.091,0.535,1.656,0.535c0.74,0,1.473-0.305,2.116-0.906
	c1.132-1.06,1.818-2.897,1.818-4.867V435.96C391.76,432.772,389.999,430.187,387.827,430.187z"/>
<path style="fill:#EFC49A;" d="M391.76,446.02v-65.269c-0.488-0.295-1.019-0.514-1.501-0.824
	c-4.167,16.813-16.944,30.137-33.346,35.243v30.851H391.76z"/>
<path style="opacity:0.15;fill:#231F20;enable-background:new    ;" d="M356.912,420.707v15.253v10.06v20.506
	c0,1.969,0.683,3.807,1.817,4.867c1.131,1.06,2.554,1.201,3.772,0.371l11.837-8.06l0.299,0.204v-17.885v-15.833v-19.364
	C369.528,415.24,363.522,418.65,356.912,420.707z"/>
<path style="fill:#7C797B;" d="M171.72,430.187h-26.99c-2.173,0-3.936,2.585-3.936,5.773v30.566c0,1.969,0.686,3.807,1.819,4.867
	c1.132,1.06,2.554,1.201,3.773,0.371l11.839-8.06l11.84,8.06c0.527,0.358,1.091,0.535,1.656,0.535c0.738,0,1.474-0.305,2.117-0.906
	c1.133-1.06,1.819-2.897,1.819-4.867V435.96C175.655,432.772,173.892,430.187,171.72,430.187z"/>
<path style="fill:#EFC49A;" d="M175.655,446.02v-62.832c-2.247-3.119-4.095-6.567-5.368-10.278c-0.77,0.034-1.53,0.116-2.304,0.116
	c-9.969,0-19.258-2.843-27.19-7.688v31.665v49.019h34.862V446.02z"/>
<path style="opacity:0.15;fill:#231F20;enable-background:new    ;" d="M140.794,368.659v28.342v38.959v10.06v20.506
	c0,1.969,0.686,3.807,1.819,4.867c1.132,1.06,2.554,1.201,3.773,0.371l11.839-8.06l0.292,0.199v-17.882v-15.833v-33.186v-21.526
	C152.13,374.286,146.153,371.931,140.794,368.659z"/>
<path style="fill:#918D8F;" d="M435.245,430.187h-40.381c-2.327,0-4.211,2.585-4.211,5.773v31.436c0,1.873,0.665,3.632,1.782,4.716
	c1.117,1.081,2.549,1.351,3.836,0.726l18.785-9.135l18.783,9.135c0.459,0.224,0.935,0.331,1.407,0.331
	c0.861,0,1.711-0.361,2.431-1.057c1.117-1.083,1.782-2.842,1.782-4.716V435.96C439.458,432.772,437.572,430.187,435.245,430.187z"/>
<path style="opacity:0.15;fill:#231F20;enable-background:new    ;" d="M396.27,472.837l12.105-5.886v-36.764h-13.511
	c-2.327,0-4.211,2.585-4.211,5.773v31.436c0,1.873,0.665,3.632,1.782,4.716C393.551,473.192,394.983,473.462,396.27,472.837z"/>
<path style="fill:#918D8F;" d="M219.132,430.187h-40.374c-2.326,0-4.21,2.585-4.21,5.773v31.436c0,1.873,0.665,3.632,1.781,4.716
	c1.117,1.081,2.549,1.351,3.837,0.726l18.78-9.135l18.779,9.135c0.459,0.224,0.935,0.331,1.408,0.331
	c0.858,0,1.709-0.361,2.429-1.057c1.117-1.083,1.781-2.842,1.781-4.716V435.96C223.343,432.772,221.458,430.187,219.132,430.187z"/>
<g style="opacity:0.15;">
	<path style="fill:#231F20;" d="M191.993,435.96c0-3.188,1.884-5.773,4.21-5.773h-17.446c-2.326,0-4.21,2.585-4.21,5.773v31.436
		c0,1.873,0.665,3.632,1.781,4.716c1.117,1.081,2.549,1.351,3.837,0.726l11.829-5.753V435.96H191.993z"/>
</g>
<path style="fill:#C6836F;" d="M486.279,207.301c-1.568,0-3.155-0.443-4.561-1.37c-3.833-2.522-4.893-7.675-2.37-11.506
	c37.379-56.77-2.644-99.947-3.053-100.375c-3.162-3.324-3.033-8.582,0.292-11.746c3.323-3.161,8.582-3.031,11.745,0.292
	c0.517,0.545,12.765,13.583,19.438,34.987c6.167,19.778,8.65,50.75-14.546,85.978C491.628,205.987,488.98,207.301,486.279,207.301z"
	/>
<path style="fill:#EDCF9A;" d="M494.831,266.494c10.722-6.545,17.123-17.862,17.123-30.27c0-16.73-11.877-31.361-28.243-34.785
	c0.039-0.459,0.1-0.908,0.164-1.376c0.1-0.735,0.195-1.431,0.195-2.177c0-23.834-19.39-43.223-43.222-43.223
	c-4.627,0-9.288,0.85-14.248,2.596l0,0c-9.127-21.905-30.348-36.06-54.066-36.06c-14.062,0-27.681,5.103-38.348,14.37
	c-8.745-25.272-32.558-42.252-59.253-42.252c-21.704,0-41.544,11.033-53.075,29.514c-0.179,0.288-0.327,0.587-0.447,0.894
	l-29.416,58.799l-52.683,54.829c0,0-61.43,14.356-56.376,32.654c0.081,0.292,0.175,0.577,0.279,0.856
	c5.104,16.598,18.745,28.88,35.831,32.139c-2.954,6.699-4.453,13.786-4.453,21.062c0,28.83,23.455,52.285,52.285,52.285
	c0.457,0,0.909-0.027,1.454-0.065c0.286-0.019,0.573-0.039,0.85-0.052h0.001c1.228,3.582,3.034,7.039,5.367,10.278l0.001,59.509
	h48.796V404.41c8.469,9.631,20.666,15.155,33.461,15.155c16.853,0,32.079-9.466,39.737-24.704l0,0
	c8.19,17.127,25.704,28.192,44.62,28.192c22.774,0,42.507-15.456,47.988-37.589c0.032,0.022,0.066,0.042,0.102,0.064
	c0.21,0.13,0.441,0.254,0.718,0.392c0.234,0.12,0.467,0.24,0.681,0.368v59.732h48.807v-59.64
	c14.568-8.602,23.65-24.413,23.701-41.264c0-0.136-0.004-0.272-0.016-0.408c-0.004-0.08-0.011-0.152-0.011-0.223
	c0.483,0.053,0.96,0.117,1.443,0.184c1.117,0.151,2.271,0.307,3.459,0.307c24.217,0,43.919-19.702,43.919-43.919
	C511.955,287.541,505.713,274.943,494.831,266.494z"/>
<g>
	<path style="fill:#EFC49A;" d="M209.921,167.92c0-15.187-3.572-29.418-9.755-41.951c-0.041,0.041-0.089,0.065-0.132,0.099
		c2.722-2.556,4.699-5.873,5.709-9.59c9.978,5.767,35.424,24.099,44.248,65.453c11.077,51.867-47.791,53.626-48.381,32.647
		c-0.032-1.243-0.147-2.484-0.327-3.758C206.758,196.937,209.921,182.167,209.921,167.92z"/>
	<path style="fill:#EFC49A;" d="M1.386,181.929c7.851-36.755,28.806-55.308,40.389-63.035c0.942,4.746,3.602,8.815,7.263,11.7
		c-0.007,0-0.016,0-0.016,0c-4.869,11.371-7.638,23.984-7.638,37.325c0,14.305,3.178,29.14,8.7,43.062
		c-0.162,1.201-0.292,2.409-0.316,3.595C49.178,235.556-9.684,233.797,1.386,181.929z"/>
</g>
<g>
	<path style="opacity:0.1;fill:#231F20;enable-background:new    ;" d="M191.993,377.274c0-0.011-0.001-0.021-0.001-0.032v-0.413
		c-0.001-0.409-0.018-0.801-0.042-1.181c-0.011-0.016-0.021-0.032-0.031-0.048c-0.407-4.839-2.558-7.363-4.715-8.671l0,0
		l-0.002-0.002c-2.394-1.45-4.786-1.412-4.786-1.412l0.038-0.013c-27.966-0.989-50.416-24.033-50.416-52.237
		c0-5.415,0.833-10.724,2.475-15.848c0.002-0.011,0.004-0.019,0.007-0.029c1.162-4.455-1.526-5.908-2.661-6.316
		c-0.142-0.042-0.282-0.086-0.424-0.13c-0.034-0.008-0.054-0.012-0.054-0.012l0.008-0.003c-10.844-3.35-19.948-10.455-25.813-19.958
		c-4.839-1.752-9.623-4.133-14.325-7.151c-1.94-1.244-4.449-1.158-6.299,0.218c-1.85,1.376-2.653,3.755-2.016,5.971
		c4.891,17.038,18.727,29.681,36.11,32.995c-2.954,6.699-4.453,13.786-4.453,21.062c0,28.83,23.455,52.285,52.285,52.285
		c0.457,0,0.909-0.027,1.454-0.065c0.286-0.019,0.573-0.039,0.85-0.052h0.001c1.228,3.582,3.034,7.039,5.367,10.278l0.001,59.509
		h17.446l-0.001-68.746L191.993,377.274z"/>
	<path style="opacity:0.15;fill:#231F20;enable-background:new    ;" d="M390.652,386.736v59.283h17.723v-53.087
		C401.978,392.041,395.985,389.891,390.652,386.736z"/>
</g>
<path style="fill:#C6836F;" d="M59.938,131.97c7.353,0,13.733-3.953,17.314-9.786c0.174,0.068,0.374,0.092,0.551,0.158
	c1.31,0.51,2.678,0.91,4.078,1.243c0.393,0.085,0.769,0.193,1.16,0.267c1.761,0.337,3.563,0.552,5.425,0.552
	c7.576,0,14.409-2.903,19.681-7.552c5.832,7.601,14.919,12.591,25.239,12.591c8.334,0,15.843-3.262,21.534-8.491
	c2.328,0.566,4.732,0.957,7.234,0.957c2.987,0,5.866-0.442,8.587-1.243c3.855,4.857,9.744,8.035,16.437,8.035
	c5.655,0,10.778-2.262,14.576-5.899c6.315,12.8,9.962,27.335,9.962,42.846c0,50.978-38.531,108.925-86.067,108.925
	c-47.53,0-86.062-57.946-86.062-108.925c0-13.625,2.829-26.509,7.801-38.121C50.842,130.253,55.166,131.97,59.938,131.97z"/>
<g style="opacity:0.15;">
	<path style="fill:#231F20;" d="M57.689,165.647c0-12.058,2.218-23.532,6.174-34.062c-1.269,0.251-2.581,0.387-3.926,0.387
		c-4.772,0-9.096-1.718-12.549-4.446c-4.972,11.613-7.801,24.496-7.801,38.121c0,50.978,38.532,108.925,86.062,108.925
		c3.058,0,6.077-0.244,9.051-0.707C91.425,267.144,57.689,213.347,57.689,165.647z"/>
</g>
<path style="fill:#EFC49A;" d="M59.196,96.161c1.595-14.942,14.094-26.612,29.445-26.612c3.217,0,6.256,0.64,9.149,1.578
	c-0.032-0.623-0.182-1.221-0.182-1.861c0-16.811,13.63-30.435,30.433-30.435c15.733,0,28.522,11.961,30.127,27.268
	c1.286-0.157,2.551-0.39,3.872-0.39c15.399,0,27.982,11.469,30.025,26.294c9.126,2.303,15.906,10.49,15.906,20.329
	c0,11.603-9.407,21.019-21.009,21.019c-6.715,0-12.623-3.208-16.473-8.103c-2.692,0.781-5.501,1.337-8.45,1.337
	c-2.492,0-4.887-0.39-7.206-0.954c-5.669,5.209-13.148,8.459-21.45,8.459c-10.279,0-19.33-4.97-25.138-12.541
	c-5.253,4.631-12.059,7.522-19.605,7.522c-3.957,0-7.722-0.806-11.17-2.21c-3.567,5.809-9.922,9.747-17.245,9.747
	c-11.202,0-20.269-9.083-20.269-20.278C39.956,105.502,48.492,96.708,59.196,96.161z"/>
<g>
	<path style="fill:#3A3637;" d="M96.44,177.794c0,4.518-3.665,8.183-8.195,8.183c-4.526,0-8.189-3.665-8.189-8.183
		c0-4.527,3.663-8.192,8.189-8.192C92.775,169.601,96.44,173.267,96.44,177.794z"/>
	<path style="fill:#3A3637;" d="M167.876,177.787c0,4.517-3.665,8.183-8.192,8.183c-4.528,0-8.192-3.666-8.192-8.183
		c0-4.528,3.665-8.192,8.192-8.192S167.876,173.258,167.876,177.787z"/>
</g>
<path style="fill:#935A4D;" d="M125.651,220.198c-2.709,0-5.249-1.321-6.804-3.541l-5.35-7.638
	c-1.777-2.538-1.995-5.853-0.565-8.602c1.431-2.747,4.27-4.472,7.369-4.472H131c3.099,0,5.939,1.725,7.369,4.472
	c1.43,2.748,1.213,6.064-0.565,8.602l-5.35,7.638C130.902,218.875,128.362,220.198,125.651,220.198z"/>
<path style="opacity:0.1;fill:#231F20;enable-background:new    ;" d="M128.041,38.832c-16.803,0-30.433,13.624-30.433,30.435
	c0,0.64,0.15,1.238,0.182,1.861c-2.892-0.938-5.932-1.578-9.149-1.578c-15.351,0-27.85,11.669-29.445,26.612
	c-10.704,0.547-19.239,9.341-19.239,20.169c0,8.273,4.958,15.381,12.065,18.533c-0.245-1.258-0.381-2.555-0.381-3.886
	c0-10.163,7.518-18.531,17.291-19.974l-0.001-0.002c0,0,1.82-0.069,2.183-1.907c0.004-0.021,0.009-0.028,0.013-0.045
	c2.352-14.087,14.456-24.852,29.197-24.852c2.2,0,4.31,0.315,6.351,0.803l-0.013-0.02c0,0,2.453,0.798,2.64-1.872
	c0.003-0.033,0.009-0.053,0.012-0.084c0.473-16.398,13.907-29.545,30.41-29.545c6.162,0,11.869,1.841,16.632,4.992
	C152.023,47,141.039,38.832,128.041,38.832z"/>
<g>
</g>
<g>
</g>
<g>
</g>
<g>
</g>
<g>
</g>
<g>
</g>
<g>
</g>
<g>
</g>
<g>
</g>
<g>
</g>
<g>
</g>
<g>
</g>
<g>
</g>
<g>
</g>
<g>
</g>
</svg>
